<svg width="15" height="15" viewBox="0 0 15 15" fill="none" xmlns="http://www.w3.org/2000/svg">
<path d="M10.5605 0.912109V0.915039C12.5061 0.968088 14.0723 2.56582 14.0723 4.52441V10.4746C14.0723 12.4665 12.4523 14.0869 10.4609 14.0869H4.51172C2.5202 14.0869 0.900391 12.4665 0.900391 10.4746V4.52441C0.900391 2.53245 2.5202 0.912109 4.51172 0.912109H10.5605ZM4.51172 1.87207C3.05005 1.87207 1.86035 3.0623 1.86035 4.52441V10.4746C1.86035 11.9366 3.05005 13.127 4.51172 13.127H10.4609C11.9226 13.1269 13.1113 11.9366 13.1113 10.4746V4.52441C13.1113 3.06231 11.9225 1.87209 10.4609 1.87207H4.51172Z" fill="white" stroke="white" stroke-width="0.2"/>
<path d="M7.48633 3.85156C9.49741 3.85156 11.1337 5.48749 11.1338 7.49902C11.1338 9.51059 9.49743 11.1475 7.48633 11.1475C5.47528 11.1474 3.83984 9.51055 3.83984 7.49902C3.83989 5.48753 5.47531 3.85163 7.48633 3.85156ZM7.48633 4.81152C6.00525 4.81159 4.79985 6.01748 4.7998 7.49902C4.7998 8.98069 6.00522 10.1865 7.48633 10.1865C8.96759 10.1865 10.1729 8.98074 10.1729 7.49902C10.1728 6.01744 8.96756 4.81152 7.48633 4.81152Z" fill="white" stroke="white" stroke-width="0.2"/>
<path d="M11.1184 2.69141C10.5404 2.69141 10.0703 3.16161 10.0703 3.7395C10.0703 4.31749 10.5404 4.7877 11.1184 4.7877C11.6964 4.7877 12.1666 4.31749 12.1666 3.7395C12.1666 3.16152 11.6964 2.69141 11.1184 2.69141ZM11.1184 4.02711C10.9599 4.02711 10.8308 3.89805 10.8308 3.7395C10.8308 3.58085 10.9599 3.45189 11.1184 3.45189C11.2771 3.45189 11.4061 3.58085 11.4061 3.7395C11.4061 3.89805 11.2771 4.02711 11.1184 4.02711Z" fill="white"/>
</svg>
