<svg width="28" height="41" viewBox="0 0 28 41" fill="none" xmlns="http://www.w3.org/2000/svg">
<path d="M1.52 0.289997V4.305H20.055L7.46 17.395L9.88 20.09C11.42 19.32 13.125 18.935 14.72 18.935C19.01 18.935 23.41 21.575 23.41 27.405C23.41 32.685 20.055 36.81 14.445 36.81C9.44 36.81 5.59 34.06 5.26 29.11L0.695 29.66C0.695 37.415 8.01 40.77 14.445 40.77C22.585 40.77 27.975 34.665 27.975 27.405C27.975 21.025 23.465 15.085 16.095 15.03C15.71 15.03 15.105 15.085 14.61 15.25L26.325 3.315V0.289997H1.52Z" fill="#181818"/>
</svg>
