<svg width="28" height="41" viewBox="0 0 28 41" fill="none" xmlns="http://www.w3.org/2000/svg">
<path d="M14.28 36.81C9.66 36.81 5.59 34.06 5.26 29.11L0.695 29.66C0.695 37.415 7.79 40.77 14.28 40.77C22.2 40.77 27.92 34.72 27.92 27.13C27.92 18.99 22.53 13.93 14.28 13.93C11.915 13.93 9 14.645 7.185 15.855L8.89 4.36H25.885V0.289997H5.645L2.84 19.32L5.48 21.575C7.68 19.265 10.925 17.89 14.115 17.89C19.835 17.89 23.355 21.905 23.355 27.13C23.355 32.74 20.11 36.81 14.28 36.81Z" fill="#181818"/>
</svg>
